HIERARCHY
ROOT Hips
{
	OFFSET 0.000000 0.000000 0.000000
	CHANNELS 6 Xposition Yposition Zposition Zrotation Yrotation Xrotation
	JOINT LHipJoint
	{
		OFFSET 0.000000 0.000000 0.000000
		CHANNELS 3 Zrotation Yrotation Xrotation
		JOINT LeftUpLeg
		{
			OFFSET 1.363060 -1.794630 0.839290
			CHANNELS 3 Zrotation Yrotation Xrotation
			JOINT LeftLeg
			{
				OFFSET 2.448110 -6.726130 0.000000
				CHANNELS 3 Zrotation Yrotation Xrotation
				JOINT LeftFoot
				{
					OFFSET 2.562200 -7.039590 0.000000
					CHANNELS 3 Zrotation Yrotation Xrotation
					JOINT LeftToeBase
					{
						OFFSET 0.157640 -0.433110 2.322550
						CHANNELS 3 Zrotation Yrotation Xrotation
						End Site
						{
							OFFSET 0.000000 0.000000 0.000000
						}
					}
				}
			}
		}
	}
	JOINT RHipJoint
	{
		OFFSET 0.000000 0.000000 0.000000
		CHANNELS 3 Zrotation Yrotation Xrotation
		JOINT RightUpLeg
		{
			OFFSET -1.305520 -1.794630 0.839290
			CHANNELS 3 Zrotation Yrotation Xrotation
			JOINT RightLeg
			{
				OFFSET -2.542530 -6.985550 0.000000
				CHANNELS 3 Zrotation Yrotation Xrotation
				JOINT RightFoot
				{
					OFFSET -2.568260 -7.056230 0.000000
					CHANNELS 3 Zrotation Yrotation Xrotation
					JOINT RightToeBase
					{
						OFFSET -0.164730 -0.452590 2.363150
						CHANNELS 3 Zrotation Yrotation Xrotation
						End Site
						{
							OFFSET 0.000000 0.000000 0.000000
						}
					}
				}
			}
		}
	}
	JOINT LowerBack
	{
		OFFSET 0.000000 0.000000 0.000000
		CHANNELS 3 Zrotation Yrotation Xrotation
		JOINT Spine
		{
			OFFSET 0.028270 2.035590 -0.193380
			CHANNELS 3 Zrotation Yrotation Xrotation
			JOINT Spine1
			{
				OFFSET 0.056720 2.048850 -0.042750
				CHANNELS 3 Zrotation Yrotation Xrotation
				JOINT Neck
				{
					OFFSET 0.000000 0.000000 0.000000
					CHANNELS 3 Zrotation Yrotation Xrotation
					JOINT Neck1
					{
						OFFSET -0.054170 1.746240 0.172020
						CHANNELS 3 Zrotation Yrotation Xrotation
						JOINT Head
						{
							OFFSET 0.104070 1.761360 -0.123970
							CHANNELS 3 Zrotation Yrotation Xrotation
							End Site
							{
								OFFSET 0.000000 0.000000 0.000000
							}
						}
					}
				}
				JOINT LeftShoulder
				{
					OFFSET 0.000000 0.000000 0.000000
					CHANNELS 3 Zrotation Yrotation Xrotation
					JOINT LeftArm
					{
						OFFSET 3.362410 1.200890 -0.311210
						CHANNELS 3 Zrotation Yrotation Xrotation
						JOINT LeftForeArm
						{
							OFFSET 4.983000 -0.000000 -0.000000
							CHANNELS 3 Zrotation Yrotation Xrotation
							JOINT LeftHand
							{
								OFFSET 3.483560 -0.000000 -0.000000
								CHANNELS 3 Zrotation Yrotation Xrotation
								JOINT LeftFingerBase
								{
									OFFSET 0.000000 0.000000 0.000000
									CHANNELS 3 Zrotation Yrotation Xrotation
									JOINT LeftHandIndex1
									{
										OFFSET 0.715260 -0.000000 -0.000000
										CHANNELS 3 Zrotation Yrotation Xrotation
										End Site
										{
											OFFSET 0.000000 0.000000 0.000000
										}
									}
								}
								JOINT LThumb
								{
									OFFSET 0.000000 0.000000 0.000000
									CHANNELS 3 Zrotation Yrotation Xrotation
									End Site
									{
										OFFSET 0.000000 0.000000 0.000000
									}
								}
							}
						}
					}
				}
				JOINT RightShoulder
				{
					OFFSET 0.000000 0.000000 0.000000
					CHANNELS 3 Zrotation Yrotation Xrotation
					JOINT RightArm
					{
						OFFSET -3.136600 1.374050 -0.404650
						CHANNELS 3 Zrotation Yrotation Xrotation
						JOINT RightForeArm
						{
							OFFSET -5.241900 -0.000000 -0.000000
							CHANNELS 3 Zrotation Yrotation Xrotation
							JOINT RightHand
							{
								OFFSET -3.444170 -0.000000 -0.000000
								CHANNELS 3 Zrotation Yrotation Xrotation
								JOINT RightFingerBase
								{
									OFFSET 0.000000 0.000000 0.000000
									CHANNELS 3 Zrotation Yrotation Xrotation
									JOINT RightHandIndex1
									{
										OFFSET -0.622530 -0.000000 -0.000000
										CHANNELS 3 Zrotation Yrotation Xrotation
										End Site
										{
											OFFSET 0.000000 0.000000 0.000000
										}
									}
								}
								JOINT RThumb
								{
									OFFSET 0.000000 0.000000 0.000000
									CHANNELS 3 Zrotation Yrotation Xrotation
									End Site
									{
										OFFSET 0.000000 0.000000 0.000000
									}
								}
							}
						}
					}
				}
			}
		}
	}
}
MOTION
Frames: 8
Frame Time: 0.008333
2.918262 -4.835418 7.978169 10.604944 11.069896 1.887748 -2.738358 2.134823 6.963357 -30.820875 9.252092 31.501293 1.660010 -0.626540 -35.287563 4.765348 -23.651085 6.791710 2.397513 -1.827234 -18.427176 -8.459606 1.024775 4.422936 -24.067694 15.836123 -25.558336 -7.265510 -19.365667 44.194275 2.520935 -2.199034 6.844306 -4.288856 -0.070827 13.968497 -17.069895 -2.939303 -0.629033 -1.937882 -3.229510 -4.851773 4.972249 -2.710417 0.181478 -2.654071 -0.248251 5.070424 0.241171 2.740945 -4.483496 1.163350 -0.145737 1.293393 -2.557459 -1.213382 0.037933 13.655770 -4.821309 -6.414362 3.560074 -10.553486 -1.397658 0.518808 -0.600515 8.024537 -4.709496 8.113165 -0.288513 -0.987120 0.000000 0.000000 6.779964 6.906322 -26.629576 -2.862868 -2.143918 0.495381 23.304564 -15.231142 -3.058066 3.553242 -2.375813 2.900012 0.229884 -0.228303 5.372677 -2.740530 -0.820809 -18.916660 1.841812 0.000000 0.000000 19.607023 -25.989529 -29.379322
2.993720 -4.982154 7.979023 10.802063 11.278792 1.978637 -2.778286 2.198289 7.015051 -30.822580 9.316746 31.890194 1.543032 -0.687761 -35.919128 4.877980 -23.869745 7.205322 2.481114 -2.143299 -18.742905 -8.485749 1.044932 4.466926 -24.542320 15.991815 -25.687218 -6.783552 -18.800999 42.113098 2.646405 -2.647475 7.010295 -4.368705 -0.145862 13.943479 -17.157116 -2.991260 -0.750203 -1.929211 -3.322722 -4.811298 4.947680 -2.743885 0.123529 -2.565018 -0.250762 5.008088 0.254343 2.777153 -4.607639 1.203704 -0.147830 1.301147 -2.556685 -1.214079 0.041316 13.797283 -4.826076 -6.587378 3.614844 -10.734908 -1.468462 0.527011 -0.599611 7.997585 -4.743277 8.050594 -0.314320 -0.994859 0.000000 0.000000 6.661453 7.005061 -26.945639 -2.902631 -2.179796 0.507345 23.502827 -15.443824 -3.136512 3.492636 -2.429469 2.911550 0.228532 -0.231332 5.424479 -2.999816 -0.739080 -19.076269 1.853340 0.000000 0.000000 19.473782 -26.256929 -29.694965
3.063579 -5.143296 7.922586 10.990048 11.466252 2.043088 -2.835987 2.251503 7.054010 -30.862940 9.354651 32.244095 1.415156 -0.765790 -36.599476 4.981914 -24.125509 7.616913 2.560460 -2.481025 -19.077084 -8.524994 1.059291 4.504869 -25.066351 16.149298 -25.772972 -6.305782 -18.217241 39.972942 2.764358 -3.102019 7.065257 -4.451670 -0.238364 13.922053 -17.242939 -3.038697 -0.878601 -1.917634 -3.412363 -4.771591 4.925366 -2.776370 0.077243 -2.464784 -0.242964 4.958815 0.273957 2.822420 -4.718922 1.251683 -0.146724 1.312308 -2.551309 -1.210089 0.045377 13.960687 -4.825676 -6.752398 3.673974 -10.905497 -1.537043 0.535600 -0.597586 7.984305 -4.771341 8.004706 -0.333010 -1.001344 0.000000 0.000000 6.559466 7.127215 -27.254896 -2.941115 -2.214134 0.520607 23.715473 -15.652739 -3.204596 3.438093 -2.482586 2.922691 0.227032 -0.234350 5.476687 -3.256164 -0.658699 -19.243149 1.864627 0.000000 0.000000 19.305542 -26.540653 -30.016493
3.130215 -5.307491 7.858401 11.176890 11.650765 2.105300 -2.892504 2.304037 7.091339 -30.910091 9.387786 32.576962 1.281974 -0.852421 -37.308235 5.081597 -24.389853 8.027884 2.638256 -2.819695 -19.410204 -8.564926 1.072828 4.544424 -25.594889 16.291574 -25.882401 -5.842312 -17.654257 37.747147 2.865005 -3.599023 7.071570 -4.532262 -0.327146 13.956824 -17.315672 -3.081975 -0.997999 -1.899442 -3.494642 -4.726202 4.906364 -2.808753 0.033434 -2.364246 -0.233798 4.908491 0.292935 2.864793 -4.835026 1.297368 -0.147325 1.320628 -2.548589 -1.208394 0.048906 14.112304 -4.830630 -6.928501 3.731892 -11.079720 -1.606535 0.543944 -0.596297 7.966306 -4.802783 7.956727 -0.351967 -1.007900 0.000000 0.000000 6.459188 7.254907 -27.564732 -2.979102 -2.247766 0.533936 23.924265 -15.861819 -3.270677 3.387536 -2.535924 2.936577 0.226121 -0.237058 5.532633 -3.492549 -0.569362 -19.390444 1.876265 0.000000 0.000000 19.161158 -26.807014 -30.303886
3.199929 -5.470549 7.813909 11.372445 11.845461 2.173131 -2.935599 2.363857 7.138027 -30.927258 9.458120 32.926846 1.170479 -0.879699 -37.876678 5.191838 -24.616858 8.542548 2.727407 -3.159212 -19.741489 -8.603025 1.083958 4.570430 -26.156443 16.414911 -25.950520 -5.383128 -17.063864 35.534985 2.959694 -4.064569 7.055356 -4.611067 -0.433493 13.979332 -17.425190 -3.132880 -1.126986 -1.880014 -3.589200 -4.689202 4.880251 -2.847888 -0.022722 -2.276776 -0.230371 4.843345 0.308613 2.895145 -4.963955 1.341539 -0.147982 1.328879 -2.545945 -1.206947 0.052760 14.269405 -4.835069 -7.095437 3.784854 -11.254106 -1.676425 0.551923 -0.595169 7.944898 -4.835879 7.910181 -0.371245 -1.014256 0.000000 0.000000 6.359078 7.398794 -27.869194 -3.021530 -2.281103 0.547872 24.135742 -16.068253 -3.331817 3.354492 -2.588547 2.960751 0.225368 -0.239561 5.594233 -3.730279 -0.479149 -19.535912 1.887396 0.000000 0.000000 18.979099 -27.091600 -30.638308
3.271759 -5.627188 7.808096 11.583543 12.052676 2.249524 -2.966288 2.428361 7.193453 -30.930321 9.547530 33.275349 1.078399 -0.877778 -38.379868 5.312182 -24.805323 9.135913 2.827253 -3.507161 -20.117355 -8.611540 1.103689 4.608509 -26.719351 16.532621 -25.980145 -4.925830 -16.475945 33.377117 3.053037 -4.438617 7.011079 -4.678435 -0.519583 14.030341 -17.522469 -3.176021 -1.216720 -1.857664 -3.664433 -4.631188 4.863537 -2.884824 -0.055878 -2.188679 -0.223911 4.770971 0.321190 2.920541 -5.098182 1.389928 -0.143230 1.334608 -2.546305 -1.209136 0.055636 14.420842 -4.842158 -7.272202 3.820577 -11.432143 -1.747212 0.558958 -0.594328 7.907449 -4.877260 7.854444 -0.402522 -1.022780 0.000000 0.000000 6.226821 7.505172 -28.214632 -3.074937 -2.323434 0.559592 24.309185 -16.283607 -3.406732 3.305406 -2.666419 2.982576 0.222773 -0.244032 5.641544 -4.069602 -0.431289 -19.753798 1.896136 0.000000 0.000000 18.694004 -27.427864 -31.074245
3.336388 -5.807059 7.703639 11.778989 12.227140 2.280957 -3.029642 2.471594 7.227181 -31.007265 9.589564 33.470253 0.961136 -0.931079 -39.043034 5.408546 -25.087606 9.656466 2.907357 -3.915882 -20.622860 -8.664813 1.109881 4.642502 -27.281939 16.667364 -25.946077 -4.484455 -15.894658 31.244894 3.133582 -4.877641 6.779800 -4.756699 -0.636317 14.108930 -17.629999 -3.227269 -1.306261 -1.832623 -3.727993 -4.550691 4.858279 -2.915921 -0.066119 -2.094201 -0.207884 4.713559 0.341714 2.956801 -5.211843 1.449302 -0.132208 1.345567 -2.542274 -1.208501 0.058780 14.587842 -4.847565 -7.424889 3.860462 -11.590738 -1.813354 0.566873 -0.590545 7.891109 -4.910641 7.827434 -0.420981 -1.029050 0.000000 0.000000 6.118758 7.640009 -28.546848 -3.126493 -2.363393 0.573116 24.499985 -16.497023 -3.477949 3.268587 -2.752532 3.014799 0.220535 -0.248577 5.693105 -4.408508 -0.382989 -19.968611 1.904272 0.000000 0.000000 18.424440 -27.747498 -31.466734
3.394827 -5.989969 7.591974 11.973030 12.397861 2.308044 -3.091966 2.514509 7.258531 -31.090364 9.630113 33.643795 0.838021 -0.990577 -39.723927 5.502313 -25.367483 10.199569 2.988072 -4.313971 -21.092632 -8.707085 1.119817 4.678969 -27.845564 16.780504 -25.961826 -4.061556 -15.320953 29.108334 3.212778 -5.209311 6.656835 -4.808583 -0.682272 14.376719 -17.700838 -3.270077 -1.381879 -1.813321 -3.789143 -4.466338 4.857411 -2.943122 -0.071986 -1.992913 -0.184630 4.664993 0.365208 2.995820 -5.321175 1.509126 -0.120866 1.356496 -2.538384 -1.207510 0.061920 14.757459 -4.853560 -7.574849 3.902942 -11.746183 -1.878550 0.574972 -0.586645 7.874576 -4.946105 7.804321 -0.436543 -1.034511 0.000000 0.000000 6.031533 7.801995 -28.860210 -3.175171 -2.401069 0.587427 24.695333 -16.706528 -3.536988 3.250231 -2.830098 3.060024 0.220078 -0.251104 5.766057 -4.613570 -0.274770 -20.069038 1.915036 0.000000 0.000000 18.308640 -27.971228 -31.691256
